<?xml version="1.0" encoding="UTF-8" standalone="no"?>
<!-- Created with Inkscape (http://www.inkscape.org/) -->

<svg
   width="270mm"
   height="86.500008mm"
   viewBox="0 0 270 86.500008"
   version="1.1"
   id="svg1"
   xmlns="http://www.w3.org/2000/svg"
   xmlns:svg="http://www.w3.org/2000/svg">
  <defs
     id="defs1" />
  <g
     id="layer1">
    <path
       id="path4-5-5-7-6"
       style="color:#000000;fill:#aefff5;fill-opacity:1;stroke-width:0.978699;stroke-linecap:round;stroke-linejoin:bevel;-inkscape-stroke:none"
       d="m 267.63557,78.325793 c -9.3268,0 -17.95244,3.039019 -24.95094,8.174197 h 12.17713 c 3.9735,-1.484282 8.27569,-2.30065 12.77381,-2.30065 0.7953,0 1.58202,0.03402 2.36443,0.08401 v -5.887216 c -0.78319,-0.04331 -1.57055,-0.07035 -2.36443,-0.07035 z M 0,35.599374 v 3.787875 c 1.5496934,1.206372 2.5419288,3.090057 2.5419288,5.221499 0,2.13144 -0.9922354,4.015105 -2.5419288,5.221467 v 3.787886 C 3.4253378,52.059961 5.8215861,48.603688 5.8215861,44.608748 5.8215861,40.613806 3.4253378,37.157533 0,35.599374 Z m 0,-2.625407 v 0.72438 c 4.4233581,1.648681 7.5721562,5.908311 7.5721562,10.910401 0,5.002079 -3.1487981,9.261689 -7.5721562,10.910369 v 0.726426 C 4.8050439,54.562947 8.2563141,49.987061 8.2563141,44.608748 8.2563141,39.230423 4.805024,34.656055 0,32.973967 Z M 13.670342,0 c -0.415388,1.4790433 -0.642177,3.03399 -0.642177,4.6387273 0,9.5159607 7.819691,17.3388587 17.331754,17.3388587 9.512063,0 17.330239,-7.822888 17.330239,-17.3388587 C 47.690158,3.03399 47.463289,1.4790433 47.04799,0 H 35.926649 c 1.032521,1.2464639 1.647918,2.8574675 1.647918,4.6387273 0,4.0467967 -3.169495,7.2191237 -7.214648,7.2191237 -4.045153,0 -7.216163,-3.172327 -7.216163,-7.2191237 0,-1.7812499 0.615028,-3.3922734 1.647917,-4.6387273 z M 4.2995805,0 C 4.0326558,1.5071815 3.8854393,3.0555526 3.8854393,4.6387273 c 0,14.6141997 11.8662807,26.4832847 26.4744797,26.4832847 14.608209,0 26.472445,-11.869085 26.472445,-26.4832847 C 56.832364,3.0555426 56.685128,1.5071915 56.418233,0 h -2.186445 c 0.289237,1.501913 0.44549,3.0516013 0.44549,4.6387273 0,13.4489977 -10.873866,24.3272987 -24.317359,24.3272987 C 16.916426,28.966026 6.0405457,18.087725 6.0405457,4.6387273 6.0405457,3.0515714 6.1972575,1.501933 6.486524,0 Z M 62.124549,0 c 0.218132,1.5148048 0.336245,3.0624574 0.336245,4.6387273 0,17.7667887 -14.341354,32.1139947 -32.100875,32.1139947 C 16.261502,36.752722 4.3255329,27.707158 0,15.090804 v 11.142071 c 6.763333,9.489459 17.846663,15.694289 30.359919,15.694289 20.554819,0 37.273192,-16.725206 37.273192,-37.2884367 C 67.633111,3.0670175 67.524364,1.521111 67.334788,0 Z M 194.00289,72.870608 c -5.48604,0 -9.99576,4.511567 -9.99576,9.999839 0,1.278074 0.2472,2.502018 0.69174,3.629543 h 7.24147 c -1.26196,-0.707527 -2.09948,-2.052045 -2.09948,-3.629543 0,-2.333976 1.829,-4.163221 4.16203,-4.163221 2.33302,0 4.16101,1.829245 4.16101,4.163221 0,1.577498 -0.83679,2.922016 -2.09846,3.629543 h 7.24096 c 0.44445,-1.127525 0.69174,-2.351469 0.69174,-3.629543 0,-5.488252 -4.50923,-9.999839 -9.99525,-9.999839 z m 0,-5.2751 c -8.42521,0 -15.2687,6.846281 -15.2687,15.274939 0,1.250745 0.15369,2.465707 0.4379,3.629543 h 1.28031 c -0.30849,-1.157739 -0.47532,-2.37375 -0.47532,-3.629543 0,-7.756633 6.27234,-14.031529 14.02581,-14.031529 7.75344,0 14.0253,6.274896 14.0253,14.031529 0,1.255753 -0.16689,2.471844 -0.47532,3.629543 h 1.27981 c 0.28418,-1.163856 0.4384,-2.378798 0.4384,-3.629543 0,-8.428638 -6.843,-15.274939 -15.26819,-15.274939 z m 0,-6.231182 c -11.85489,0 -21.49733,9.646385 -21.49733,21.506121 0,1.237344 0.11101,2.448835 0.31249,3.629543 h 3.02683 c -0.23213,-1.173614 -0.35597,-2.386641 -0.35597,-3.629543 0,-10.246896 8.27129,-18.521542 18.51398,-18.521542 10.24271,0 18.51448,8.274646 18.51448,18.521542 0,1.242902 -0.12435,2.455919 -0.35648,3.629543 h 3.02684 c 0.20147,-1.180728 0.31249,-2.392199 0.31249,-3.629543 0,-11.859726 -9.64245,-21.506121 -21.49733,-21.506121 z M 83.612259,0 c 1.797547,1.7145463 4.223319,2.7746293 6.879919,2.7746293 2.65658,0 5.081584,-1.060083 6.878912,-2.7746293 z m -6.571463,0 c 2.578892,4.7892568 7.638214,8.0487318 13.451382,8.0487318 5.813168,0 10.871762,-3.259465 13.450362,-8.0487318 h -1.42342 C 100.06775,4.0791955 95.602497,6.8053313 90.492178,6.8053313 85.381859,6.8053313 80.915882,4.0791756 78.464218,0 Z m -6.794462,0 c 2.973544,8.3147778 10.924185,14.280402 20.245844,14.280402 9.321659,0 17.271792,-5.9656242 20.245332,-14.280402 h -3.18815 C 104.74082,6.6455121 98.170837,11.296363 90.492178,11.296363 82.813529,11.296363 76.243024,6.6455121 73.434479,0 Z m 74.927816,47.148143 c -7.58465,0 -13.81992,6.237857 -13.81992,13.825611 0,7.587753 6.23527,13.825591 13.81992,13.825591 7.58466,0 13.81859,-6.237838 13.81859,-13.825591 0,-7.587754 -6.23393,-13.825611 -13.81859,-13.825611 z m 0,8.069207 c 3.22549,0 5.75272,2.529596 5.75272,5.756404 0,3.226816 -2.52723,5.756404 -5.75272,5.756404 -3.22546,0 -5.75405,-2.529598 -5.75405,-5.756404 0,-3.226808 2.52859,-5.756404 5.75405,-5.756404 z m 0,-15.362068 c -11.64817,0 -21.10984,9.465532 -21.10984,21.118472 0,11.65292 9.46167,21.117115 21.10984,21.117115 11.64817,0 21.1085,-9.464195 21.1085,-21.117125 0,-11.65294 -9.46033,-21.118472 -21.1085,-21.118462 z m 0,1.719126 c 10.71948,0 19.39008,8.675486 19.39008,19.399336 0,10.723839 -8.6706,19.397988 -19.39008,19.397988 -10.71945,0 -19.3914,-8.674149 -19.3914,-19.397988 0,-10.72385 8.67195,-19.399336 19.3914,-19.399336 z m -1.7e-4,-10.333536 c -16.38981,0 -29.72074,13.336405 -29.72074,29.732922 0,10.834346 5.82309,20.328795 14.50061,25.526196 h 13.27337 c -13.24645,-0.992841 -23.64938,-12.015614 -23.64938,-25.526196 0,-14.166712 11.43523,-25.607109 25.59614,-25.607109 14.16094,0 25.59668,11.440407 25.59668,25.607129 0,13.510642 -10.40332,24.533465 -23.64989,25.526186 h 13.27389 c 8.67748,-5.197391 14.5001,-14.69187 14.5001,-25.526186 0,-16.396518 -13.33094,-29.732922 -29.72078,-29.732942 z m 101.4915,-17.033778 c -10.79701,0 -19.67316,8.879777 -19.67316,19.681217 0,10.801449 8.87615,19.681216 19.67316,19.681216 10.79701,0 19.67125,-8.879767 19.67125,-19.681216 0,-10.80143 -8.87424,-19.681217 -19.67125,-19.681217 z m 0,11.486765 c 4.5916,0 8.18919,3.600965 8.18919,8.194432 0,4.593476 -3.59759,8.194462 -8.18919,8.194462 -4.59159,0 -8.19111,-3.600986 -8.19111,-8.194462 0,-4.593467 3.59952,-8.194432 8.19111,-8.194432 z m 1.5e-4,-21.8685461 c -16.58157,0 -30.05095,13.4748901 -30.05095,30.0632371 0,16.588346 13.46938,30.060702 30.05095,30.060702 9.41553,0 17.8227,-4.347248 23.33437,-11.139039 v -4.166254 c -4.8892,7.728615 -13.50341,12.857956 -23.33437,12.857956 -15.25953,0 -27.60461,-12.347596 -27.60461,-27.613365 0,-15.265739 12.34508,-27.6158994 27.60461,-27.6158994 9.83096,0 18.44517,5.1302984 23.33437,12.8594814 V 14.965358 C 264.48833,8.1730788 256.08113,3.8253229 246.66563,3.8253129 Z M 221.34304,0 c -10.30575,7.7263395 -16.98641,20.040658 -16.98641,33.88855 0,23.341043 18.9775,42.325799 42.309,42.325799 8.61964,0 16.64072,-2.59733 23.33437,-7.042073 V 61.90459 c -6.31668,5.267816 -14.44705,8.436232 -23.33437,8.436232 -20.15858,0 -36.43786,-16.285442 -36.43786,-36.452262 0,-15.410852 9.51126,-28.5459279 22.99053,-33.888540043807 z m 38.76993,0 C 263.7296,1.4335033 267.06231,3.422098 270,5.8720101 V 0 Z M 33.481319,67.735131 c -10.489936,0 -19.164621,8.38228 -19.649667,18.764859 H 25.34183 c 0.442727,-4.146608 3.85836,-7.277794 8.139489,-7.277794 4.281118,0 7.694946,3.131186 8.137483,7.277794 H 53.12948 C 52.644523,76.117411 43.971255,67.735131 33.481319,67.735131 Z m 0,-10.38178 c -16.274329,0 -29.5408032,12.982382 -30.0271862,29.146629 H 5.9004706 C 6.3839014,71.660445 18.529086,59.800709 33.481319,59.800709 c 14.952242,0 27.095981,11.859746 27.579332,26.699271 h 2.446337 C 63.020655,70.335733 49.755648,57.353351 33.481319,57.353351 Z m 0,-12.263041 C 19.866961,45.09031 7.7437592,51.561425 0,61.583346 V 72.996542 C 5.5747291,60.025206 18.44681,50.963847 33.481319,50.963847 c 19.851321,0 35.928743,15.796055 36.414608,35.536133 h 5.870618 C 75.275833,63.582038 56.505566,45.09031 33.481319,45.09031 Z M 168.61354,0 c -1.66747,2.0029832 -2.67388,4.5736801 -2.67388,7.370361 0,6.35521 5.19245,11.549786 11.54506,11.549786 6.3526,0 11.54304,-5.194576 11.54304,-11.549786 0,-2.7966809 -1.00583,-5.3673778 -2.67287,-7.370361 h -6.87284 c 3.25701,0.87076854 5.63196,3.8239159 5.63196,7.370361 0,4.239074 -3.39196,7.634441 -7.62929,7.634441 -4.23735,0 -7.63132,-3.395367 -7.63132,-7.634441 0,-3.5464451 2.37604,-6.49959246 5.63348,-7.370361 z m -10.41038,0 c -0.88154,2.2922781 -1.37031,4.7758763 -1.37031,7.370361 0,11.369542 9.28697,20.660317 20.65187,20.660317 11.3649,0 20.65188,-9.290775 20.65188,-20.660317 0,-2.5944847 -0.48879,-5.0780829 -1.37031,-7.370361 h -7.59138 c 1.33746,2.128817 2.11212,4.6525969 2.11212,7.370361 0,7.666301 -6.13915,13.80795 -13.80231,13.80795 -7.66317,0 -13.80231,-6.141649 -13.80231,-13.80795 0,-2.7177641 0.77466,-5.241544 2.11211,-7.370361 z m -5.14249,0 c -0.70349,2.3341961 -1.08564,4.8075168 -1.08564,7.370361 0,14.088503 11.42695,25.52013 25.50969,25.52013 14.08272,0 25.50967,-11.431637 25.50967,-25.52013 0,-2.5628442 -0.38213,-5.0361649 -1.08563,-7.370361 h -1.01888 c 0.73069,2.3264032 1.12608,4.8018493 1.12608,7.370361 0,13.559475 -10.97734,24.541288 -24.53124,24.541288 -13.55392,0 -24.53125,-10.981813 -24.53125,-24.541288 0,-2.5685117 0.39539,-5.0439578 1.12609,-7.370361 z M 99.595955,80.431691 a 5.0211217,5.023174 0 0 0 -5.021141,5.022684 5.0211217,5.023174 0 0 0 0.12288,1.045615 h 9.796516 a 5.0211217,5.023174 0 0 0 0.12288,-1.045615 5.0211217,5.023174 0 0 0 -5.021135,-5.022684 z m -5.09e-4,-10.144003 c -8.350579,0 -15.160989,6.813184 -15.160989,15.167196 0,0.351579 0.01676,0.699365 0.0405,1.045106 h 3.787344 c -0.03102,-0.344305 -0.04957,-0.69243 -0.04957,-1.045106 0,-6.312024 5.073326,-11.38893 11.382761,-11.38893 6.309448,0 11.384778,5.076896 11.384778,11.38893 0,0.352686 -0.0186,0.700821 -0.0496,1.045106 h 3.78584 c 0.0238,-0.345741 0.04,-0.693527 0.04,-1.045106 0,-8.353992 -6.81042,-15.167196 -15.160998,-15.167196 z m 0,-3.112557 c -10.086976,0 -18.272275,8.188634 -18.272275,18.279743 0,0.350919 0.01227,0.699056 0.03182,1.045106 h 0.703358 c -0.02025,-0.346 -0.03391,-0.693997 -0.03391,-1.045106 0,-9.71217 7.862739,-17.578124 17.570941,-17.578124 9.70818,0 17.57094,7.865954 17.57094,17.578124 0,0.351109 -0.0132,0.699106 -0.0334,1.045106 h 0.70286 c 0.0196,-0.34606 0.0318,-0.694187 0.0318,-1.045106 0,-10.091109 -8.18531,-18.279743 -18.27228,-18.279743 z M 134.23112,14.050217 a 5.0211217,5.023174 0 0 1 -5.02113,5.023174 5.0211217,5.023174 0 0 1 -5.02112,-5.023174 5.0211217,5.023174 0 0 1 5.02112,-5.0231827 5.0211217,5.023174 0 0 1 5.02113,5.0231827 z M 123.51638,0 c -5.54239,2.2600489 -9.46734,7.7100154 -9.46734,14.050747 0,8.353991 6.81042,15.167205 15.161,15.167205 8.35057,0 15.16099,-6.813214 15.16099,-15.167195 0,-6.3406817 -3.92504,-11.7906582 -9.46735,-14.0507470219034 z m 5.69366,2.661308 c 6.30942,0 11.38425,5.0774044 11.38425,11.389439 0,6.312014 -5.07483,11.387402 -11.38425,11.387402 -6.30947,0 -11.38276,-5.075388 -11.38276,-11.387402 0,-6.3120346 5.07329,-11.389439 11.38276,-11.389439 z M 117.52742,0 c -4.02522,3.3538778 -6.58967,8.4038722 -6.58967,14.050747 0,10.091089 8.18531,18.277717 18.27229,18.277717 10.08695,0 18.27226,-8.186628 18.27226,-18.277717 C 147.4823,8.4038922 144.91784,3.3538877 140.89264,0 h -1.12154 c 4.2574,3.2070102 7.00986,8.3053984 7.00986,14.050747 0,9.71216 -7.86274,17.578143 -17.57092,17.578143 -9.70821,0 -17.57096,-7.865983 -17.57096,-17.578143 0,-5.7453386 2.75199,-10.8437368 7.00937,-14.050747 z m 71.99432,37.188765 c -5.44147,0 -9.88627,4.448535 -9.88627,9.892216 0,5.44371 4.4448,9.892234 9.88627,9.892234 5.44146,0 9.88818,-4.448524 9.88818,-9.892234 0,-5.443681 -4.44672,-9.892216 -9.88818,-9.892216 z m 0,3.280839 c 3.6691,0 6.60867,2.940804 6.60867,6.611377 0,3.670601 -2.93957,6.611396 -6.60867,6.611396 -3.6691,0 -6.60677,-2.940795 -6.60677,-6.611396 0,-3.670573 2.93767,-6.611377 6.60677,-6.611377 z m 0,-5.714686 c -6.80126,0 -12.32106,5.522068 -12.32106,12.326073 0,6.804024 5.5198,12.328008 12.32106,12.328008 6.80124,0 12.32297,-5.523984 12.32297,-12.328008 0,-6.804005 -5.52173,-12.326073 -12.32297,-12.326073 z m 0,0.684467 c 6.43107,0 11.63877,5.207918 11.63877,11.641606 0,6.433716 -5.2077,11.641634 -11.63877,11.641634 -6.43107,0 -11.63688,-5.207918 -11.63688,-11.641634 0,-6.433688 5.20581,-11.641606 11.63688,-11.641606 z M 89.836765,29.674809 c -6.352613,0 -11.545117,5.192732 -11.545117,11.547941 0,6.35521 5.192504,11.549846 11.545117,11.549846 6.352623,0 11.543225,-5.194636 11.543225,-11.549846 0,-6.355209 -5.190602,-11.547941 -11.543225,-11.547941 z m 0,3.915585 c 4.237353,0 7.629228,3.393291 7.629228,7.632356 0,4.239064 -3.391875,7.634261 -7.629228,7.634261 -4.237342,0 -7.631122,-3.395197 -7.631122,-7.634261 0,-4.239065 3.39378,-7.632356 7.631122,-7.632356 z m 0,-13.027752 c -11.364897,0 -20.651657,9.290566 -20.651657,20.660108 0,11.369552 9.28676,20.660108 20.651657,20.660108 11.364905,0 20.651655,-9.290556 20.651655,-20.660108 0,-11.369542 -9.28675,-20.660108 -20.651655,-20.660108 z m 0,6.852278 c 7.663169,0 13.802175,6.141529 13.802175,13.80783 0,7.666301 -6.139006,13.80783 -13.802175,13.80783 -7.663169,0 -13.802168,-6.141529 -13.802168,-13.80783 0,-7.666301 6.138999,-13.80783 13.802168,-13.80783 z m 0,-11.712349 c -14.082747,0 -25.509753,11.431685 -25.509753,25.520179 0,14.088503 11.427006,25.52018 25.509753,25.52018 14.082745,0 25.509765,-11.431677 25.509765,-25.52018 0,-14.088494 -11.42702,-25.520179 -25.509765,-25.520179 z m 0,0.9789 c 13.553935,0 24.531265,10.981804 24.531265,24.541279 0,13.559465 -10.97733,24.541288 -24.531265,24.541288 -13.553925,0 -24.531261,-10.981823 -24.531261,-24.541288 0,-13.559475 10.977336,-24.541279 24.531261,-24.541279 z" />
  </g>
</svg>
