<?xml version="1.0" encoding="UTF-8" standalone="no"?>
<!-- Created with Inkscape (http://www.inkscape.org/) -->

<svg
   width="200mm"
   height="112.00001mm"
   viewBox="0 0 200 112.00001"
   version="1.1"
   id="svg1"
   xmlns="http://www.w3.org/2000/svg"
   xmlns:svg="http://www.w3.org/2000/svg">
  <defs
     id="defs1" />
  <g
     id="layer1">
    <path
       id="path4-4-1-7"
       style="color:#000000;display:inline;fill:#aefff5;fill-opacity:1;stroke-width:1.26853;stroke-linecap:round;stroke-linejoin:bevel;-inkscape-stroke:none"
       d="m 0,46.106787 v 5.208127 c 1.5519458,1.546573 2.5079802,3.68934 2.5079802,6.068832 0,2.379521 -0.9560344,4.522258 -2.5079802,6.068841 v 5.208131 C 4.0183349,66.49184 6.7629273,62.244775 6.7629273,57.383746 6.7629273,52.522736 4.0183349,48.27566 0,46.106787 Z m 0,-3.489985 v 0.960922 c 5.3194036,2.330882 9.0340792,7.630681 9.0340792,13.806022 0,6.17541 -3.7146398,11.475187 -9.0340792,13.806027 v 0.962915 C 5.8187082,69.764834 9.9216763,64.050264 9.9216763,57.383746 9.9216763,50.717267 5.8187082,45.00393 0,42.616802 Z M 16.836798,0 c -0.471966,1.8005794 -0.724257,3.6864234 -0.724257,5.6266974 0,12.3220486 10.1431,22.4524166 22.483841,22.4524026 12.340716,0 22.485782,-10.130354 22.485782,-22.4524026 0,-1.940274 -0.252183,-3.826118 -0.724256,-5.6266974 h -14.25009 c 1.161457,1.5568006 1.850637,3.4946418 1.850637,5.6266974 0,5.2401186 -4.114016,9.3485646 -9.362073,9.3485646 -5.248087,1.3e-5 -9.360123,-4.108446 -9.360123,-9.3485646 0,-2.1321322 0.6896,-4.0698571 1.850637,-5.6266974 z M 4.7200864,0 C 4.4164401,1.8318095 4.2510246,3.7096573 4.2510246,5.6266974 c 0,18.9236386 15.3930234,34.2933526 34.3453574,34.2933526 18.952311,0 34.34796,-15.369725 34.34796,-34.2933526 C 72.944342,3.7096573 72.778987,1.8318095 72.475291,0 h -2.838607 c 0.329236,1.8264721 0.51039,3.7047266 0.51039,5.6266974 C 70.147087,23.04155 56.037617,37.130282 38.596382,37.130282 21.155109,37.130282 7.0476203,23.04155 7.0476322,5.6266974 7.0476322,3.7047385 7.2288463,1.8264601 7.5580332,0 Z M 79.855541,0 c 0.248382,1.8408726 0.388365,3.7166911 0.388365,5.6266974 0,23.0058816 -18.606773,41.5844606 -41.647524,41.5844606 C 21.106416,47.21118 6.1809094,36.501257 0,21.280557 v 13.39861 C 8.8342225,46.3515 22.845214,53.91012 38.596382,53.91012 65.263683,53.91012 86.955656,32.253649 86.955656,5.6266974 86.955656,3.7224729 86.832264,1.8472859 86.616501,0 Z m 28.246329,0 c 2.28452,1.9954384 5.2649,3.2129154 8.51054,3.2129154 3.24566,0 6.22529,-1.217489 8.50926,-3.2129154 z m -8.727716,0 c 3.406286,5.9926276 9.851976,10.043552 17.238256,10.043552 7.38624,0 13.83008,-4.0509861 17.23566,-10.043552 h -1.86965 c -3.22619,5.0706591 -8.89651,8.4341471 -15.36601,8.4341471 -6.46949,0 -12.14044,-3.363488 -15.36664,-8.4341471 z m -8.89107,0 c 3.962299,10.568409 14.177826,18.111539 26.129326,18.111539 11.95134,0 22.16496,-7.543398 26.12674,-18.111539 h -4.16904 C 134.83869,8.4003914 126.42638,14.246871 116.61241,14.246871 106.79843,14.246871 98.384209,8.4004431 94.652114,0 Z m 97.071526,60.671337 c -9.84013,9e-6 -17.92908,8.076691 -17.92908,17.901918 0,9.825237 8.08895,17.903892 17.92908,17.903892 4.81716,0 9.21117,-1.939243 12.44539,-5.068615 V 65.73929 c -3.23426,-3.12887 -7.62812,-5.067944 -12.44539,-5.067953 z m 0,10.44966 c 4.18464,0 7.46552,3.273949 7.46552,7.452258 0,4.178349 -3.28087,7.454207 -7.46552,7.454207 -4.18468,0 -7.46617,-3.275858 -7.46617,-7.454207 0,-4.178309 3.2815,-7.452258 7.46617,-7.452258 z m 0,-19.891891 c -15.11204,0 -27.3856,12.25501 -27.38562,27.344149 0,15.089168 12.27357,27.346135 27.38562,27.346135 4.4814,0 8.70893,-1.08478 12.44539,-2.9948 v -2.51728 c -3.66969,2.08831 -7.91432,3.28696 -12.44539,3.28696 -13.90716,0 -25.15646,-11.234916 -25.15646,-25.121015 1e-5,-13.886099 11.2493,-25.118357 25.15646,-25.118357 4.53107,-1e-5 8.7757,1.198316 12.44539,3.286268 v -2.517919 c -3.73642,-1.909672 -7.96404,-2.994141 -12.44539,-2.994141 z m 0,-11.155785 c -21.26375,0 -38.55831,17.268395 -38.55832,38.499934 0,14.295265 7.84652,26.785365 19.45956,33.426745 H 200 v -2.67514 c -3.84267,1.54789 -8.04032,2.4079 -12.44539,2.4079 -18.37205,0 -33.20781,-14.815266 -33.20781,-33.159505 0,-18.344215 14.83576,-33.156873 33.20781,-33.156873 4.40507,0 8.60272,0.859583 12.44539,2.407244 v -5.681068 c -3.90732,-1.334218 -8.09066,-2.069237 -12.44539,-2.069237 z M 42.647954,87.329654 C 28.913611,87.329664 17.582541,98.385079 17.145124,112 h 14.915959 c 0.405483,-5.55221 4.905665,-9.79661 10.586871,-9.79661 5.681219,0 10.178985,4.2444 10.584262,9.79661 h 14.9153 C 67.710195,98.385079 56.382292,87.329664 42.647954,87.329654 Z m 0,-13.443136 C 21.408972,73.886518 4.1181672,90.896555 3.6815898,112 H 6.8547701 C 7.2889715,92.611015 23.124207,77.055578 42.647954,77.055578 62.171706,77.055578 78.003739,92.611015 78.43787,112 h 3.173828 C 81.175204,90.896555 63.886943,73.886518 42.647954,73.886518 Z m 0,-15.879174 C 25.443562,58.007344 10.07116,65.954805 0,78.359708 V 92.393043 C 7.6117643,76.535695 23.825997,65.612864 42.647954,65.612864 68.527675,65.612864 89.465137,86.26524 89.900537,112 h 7.616419 C 97.077584,82.151779 72.644139,58.007344 42.647954,58.007344 Z M 115.76184,38.045978 c -8.24173,0 -14.97837,6.723962 -14.97837,14.9532 0,8.229248 6.73664,14.955682 14.97837,14.955682 8.24172,0 14.97586,-6.726434 14.97586,-14.955682 0,-8.229238 -6.73414,-14.9532 -14.97586,-14.9532 z m 0,5.070229 c 5.49741,0 9.89795,4.393887 9.89795,9.882971 0,5.489101 -4.40054,9.885462 -9.89795,9.885462 -5.49745,0 -9.90045,-4.396361 -9.90045,-9.885462 0,-5.489084 4.403,-9.882971 9.90045,-9.882971 z m 0,-16.869411 c -14.74455,0 -26.79296,12.030168 -26.79296,26.752382 0,14.72223 12.04841,26.752378 26.79296,26.752378 14.74454,2e-5 26.79294,-12.030148 26.79294,-26.752378 0,-14.722214 -12.0484,-26.752382 -26.79294,-26.752382 z m 0,8.872899 c 9.94199,0 17.90657,7.952525 17.90657,17.879483 0,9.926954 -7.96458,17.879487 -17.90657,17.879487 -9.94202,0 -17.906604,-7.952543 -17.906604,-17.879487 0,-9.926944 7.964584,-17.879483 17.906604,-17.879483 z m 0,-15.166117 c -18.270604,0 -33.095726,14.802671 -33.09574,33.0456 0,18.242935 14.825124,33.045615 33.09574,33.045615 18.27059,1e-5 33.09572,-14.80267 33.09572,-33.045615 0,-18.242929 -14.82513,-33.0456 -33.09572,-33.0456 z m 0,1.267557 c 17.58451,0 31.82623,14.220151 31.82623,31.778043 0,17.557909 -14.24172,31.778055 -31.82623,31.778045 -17.584542,0 -31.826256,-14.220146 -31.826256,-31.778045 1.4e-5,-17.557892 14.241726,-31.778043 31.826256,-31.778043 z m 12.66093,82.548445 a 6.5142783,6.5044142 0 0 0 -6.51429,6.50443 6.5142783,6.5044142 0 0 0 0.24075,1.72599 h 12.55298 a 6.5142783,6.5044142 0 0 0 0.23486,-1.72599 6.5142783,6.5044142 0 0 0 -6.5143,-6.50443 z m -6.6e-4,-13.134628 c -10.83381,0 -19.6675,8.822287 -19.66751,19.639718 0,0.58174 0.0313,1.15619 0.0814,1.72533 h 4.92146 c -0.0656,-0.56617 -0.10299,-1.14098 -0.10299,-1.72533 0,-8.17333 6.582,-14.74798 14.7677,-14.74798 8.18572,0 14.76967,6.57465 14.76969,14.74798 0,0.58434 -0.0369,1.15917 -0.10243,1.72533 h 4.92147 c 0.05,-0.56913 0.0807,-1.1436 0.0807,-1.72533 0,-10.817431 -8.83571,-19.639718 -19.66952,-19.639718 z m 0,-4.030385 c -13.08657,0 -23.70401,10.603344 -23.70401,23.670103 0,0.58102 0.0283,1.1548 0.0696,1.72533 h 0.90991 c -0.0428,-0.57018 -0.0715,-1.14418 -0.0715,-1.72533 0,-12.57611 10.20093,-22.761587 22.79607,-22.761587 12.59517,0 22.79614,10.185477 22.79614,22.761587 0,0.58115 -0.0295,1.15515 -0.0721,1.72533 h 0.91253 c 0.0413,-0.57053 0.0696,-1.14431 0.0696,-1.72533 0,-13.066759 -10.61941,-23.670103 -23.70599,-23.670103 z M 173.35797,17.81398 a 6.5142783,6.5044142 0 0 1 -6.51429,6.504405 6.5142783,6.5044142 0 0 1 -6.51428,-6.504405 6.5142783,6.5044142 0 0 1 6.51428,-6.504419 6.5142783,6.5044142 0 0 1 6.51429,6.504419 z M 158.58602,0 c -6.72718,3.1262885 -11.41217,9.939902 -11.41217,17.814804 0,10.817408 8.83567,19.63972 19.66949,19.63972 10.83381,0 19.66949,-8.822312 19.66951,-19.63972 C 186.51285,9.9397638 181.82806,3.1262129 175.10069,0 Z m 8.25732,3.066841 c 8.18571,0 14.77033,6.5746401 14.77033,14.747963 0,8.17331 -6.58462,14.745338 -14.77033,14.745338 -8.18572,0 -14.76769,-6.572028 -14.7677,-14.745338 0,-8.1733229 6.58198,-14.747963 14.7677,-14.747963 z M 151.24775,0 c -4.96736,4.3396846 -8.11039,10.71106 -8.11039,17.814804 0,13.066766 10.61942,23.667482 23.70598,23.667482 13.08657,0 23.706,-10.600716 23.706,-23.667482 C 190.54935,10.710959 187.40644,4.3396846 182.43896,0 h -1.41046 c 5.24591,4.1691963 8.61093,10.595813 8.61093,17.814804 0,12.576094 -10.20091,22.761574 -22.79609,22.761574 -12.59514,0 -22.79608,-10.18548 -22.79608,-22.761574 C 144.04725,10.595888 147.41237,4.1691963 152.65819,0 Z" />
  </g>
</svg>
