<?xml version="1.0" encoding="UTF-8" standalone="no"?>
<!-- Created with Inkscape (http://www.inkscape.org/) -->

<svg
   width="40mm"
   height="15mm"
   viewBox="0 0 40 15"
   version="1.1"
   id="svg1"
   xmlns="http://www.w3.org/2000/svg"
   xmlns:svg="http://www.w3.org/2000/svg">
  <defs
     id="defs1" />
  <g
     id="layer1">
    <path
       style="display:inline;fill:#07164d;fill-opacity:1;stroke-width:0.303919"
       d="m 10.471609,14.747034 -0.5648009,-0.25087 -0.2992373,-0.339217 -0.2992373,-0.339218 -0.11573,-0.397468 -0.1157203,-0.397464 8.21e-5,-0.74813 8.7e-5,-0.748126 0.3074105,-0.164144 0.3074154,-0.164143 0.3308528,0.153647 0.330863,0.153652 0.313396,-0.171567 0.313405,-0.171566 0.335418,0.182058 0.335428,0.182063 4.2e-4,0.632345 4.25e-4,0.632349 0.07479,-0.07134 0.07479,-0.07134 0.0844,-0.593257 0.0844,-0.593258 0.294783,-0.368645 0.294779,-0.368648 0.324776,-0.160204 0.324781,-0.160199 h 0.229654 0.229658 V 9.1169826 7.8296151 l 0.275017,-0.2623336 0.275017,-0.2623292 h 0.17316 0.17316 l -0.0024,2.9657977 -0.0024,2.965798 -0.207158,0.435067 -0.207157,0.435062 -0.412934,0.32467 -0.412933,0.324668 -0.426865,0.121992 L 12.466544,15 11.751252,14.9987 11.035961,14.9974 Z M 8.8035231,11.091401 8.62745,10.923457 V 10.070634 9.2178079 L 9.0160088,9.0629438 9.4045675,8.9080842 H 9.5202057 9.6358536 V 9.9157753 10.923457 L 9.4597854,11.091401 9.2837171,11.259352 H 9.1316518 8.9795913 Z m 1.2324869,0 -0.1760678,-0.167944 V 9.8568797 8.7903027 L 10.248501,8.6354432 10.63706,8.4805837 h 0.115643 0.115648 v 1.221436 1.2214373 l -0.176073,0.167944 -0.176074,0.167951 h -0.15206 -0.15206 z m 1.232497,0 -0.176073,-0.167944 V 9.6431288 8.3628021 L 11.480993,8.2079425 11.869552,8.053083 h 0.115638 0.115648 v 1.4351867 1.4351873 l -0.176068,0.167944 -0.176069,0.167951 h -0.152065 -0.15206 z m 1.05642,-3.7555726 V 3.9276837 l 0.134458,-0.1282502 0.134448,-0.1282548 h 0.29132 0.291315 l 0.134453,0.1282548 0.134458,0.1282502 v 3.131458 3.1314533 h -0.215495 -0.215495 l -0.344726,0.276692 -0.344736,0.276686 z M 28.095234,7.7711897 27.899152,7.7167822 V 7.5287934 7.3408047 l 0.601059,0.047542 0.601054,0.047546 0.183261,-0.2495612 0.183256,-0.2495657 V 6.7964672 6.6561771 L 29.251055,6.7668168 29.034333,6.8774517 H 28.654339 28.274345 L 28.002719,6.6016497 27.731088,6.3258524 V 5.7913154 5.256783 l 0.377888,-0.3220676 0.377889,-0.3220631 0.350402,0.070193 0.350402,0.070198 0.364145,-0.00645 0.364146,-0.00645 v 1.2230442 1.2230397 l -0.258695,0.2868788 -0.25869,0.2868695 -0.553632,0.032853 -0.553628,0.032853 z m 1.038956,-1.3225426 0.211906,-0.1081745 0.0734,-0.373236 0.07341,-0.373236 -0.183213,-0.26672 L 29.126481,5.060565 H 28.856956 28.587427 L 28.411358,5.2285148 28.235285,5.3964603 V 5.8102668 6.224078 l 0.249024,0.1663695 0.249019,0.1663742 h 0.09448 0.09448 z M 1.0913777,6.8315684 0.67014522,6.6881913 0.49575317,6.5501359 0.32136113,6.4120806 0.16068298,6.1156961 0,5.819307 V 5.3723944 4.9254816 L 0.22855685,4.5727313 0.45711371,4.2199857 0.95482325,4.0386781 1.4525425,3.8573659 l 0.5688391,0.052136 0.5688441,0.052136 0.096828,0.095241 0.096833,0.095245 -0.059937,0.2912695 -0.059942,0.29127 L 2.4598205,4.6304241 2.2556289,4.5261846 H 1.8510134 1.4463932 L 1.171381,4.7885182 0.89636409,5.0508473 V 5.317867 5.5848867 l 0.12855021,0.2691208 0.1285503,0.26913 0.348644,0.1097549 0.348644,0.109755 0.4471773,-0.026495 0.4471676,-0.026494 V 6.552029 6.8143995 l -0.2801083,0.074322 -0.2801132,0.074321 -0.3361377,0.00594 -0.336133,0.00594 z M 5.4341753,6.8402309 5.0980376,6.6929233 4.9170084,6.4912866 4.735984,6.2896499 4.6630091,5.9966429 4.5900438,5.7036358 4.7481714,5.3426379 4.9062991,4.9816446 5.1671577,4.8073637 5.4280115,4.6330781 h 0.4179767 0.4179767 l 0.263414,0.1144826 0.2634092,0.1144823 0.1263524,0.1929881 0.1263523,0.1929882 0.076158,0.3872202 0.076158,0.3872248 H 6.3292835 5.4627576 L 5.6121323,6.1941419 5.7615021,6.365824 6.3541414,6.3189454 6.9467806,6.2720667 V 6.5150254 6.7579746 L 6.8440255,6.8185564 6.7412751,6.8791289 6.2557917,6.9333337 5.7703082,6.9875384 Z M 6.3612085,5.4690036 6.3172023,5.3430434 6.1277969,5.2290771 5.9383867,5.1151153 5.7489766,5.2290771 5.5595664,5.3430434 5.5155602,5.4690036 5.471554,5.5949591 h 0.4668521 0.466852 z M 7.8431399,6.9085213 7.675071,6.8495752 7.4789947,6.6866476 7.2829136,6.5237108 V 6.2682288 6.0127467 L 7.5579353,5.7504131 7.8329523,5.4880839 H 8.3515829 8.8702135 L 8.8212512,5.3544889 8.772284,5.2208937 8.1956628,5.2355922 7.6190465,5.2502907 V 5.0065537 4.762812 L 7.7962789,4.697941 7.9735064,4.633065 h 0.544817 0.5448121 l 0.3038021,0.2492664 0.3037973,0.2492617 0.052981,0.8729297 0.052976,0.8729343 H 9.3701354 8.9635878 V 6.7769167 6.6763818 L 8.6554623,6.8296977 8.3473369,6.9830137 8.179268,6.9752267 8.0112039,6.9674397 Z M 8.8307867,6.1026196 8.8679818,5.9155891 H 8.5933706 8.3187642 L 8.1939721,6.059017 8.0691849,6.2024449 l 0.078863,0.07523 0.078868,0.07523 0.2833448,-0.031655 0.2833496,-0.031609 z M 10.670637,6.8760787 10.416908,6.7763316 10.306492,6.4993132 10.19608,6.2222994 V 5.7483166 5.2743337 H 9.9719865 9.7478979 V 4.9537082 4.6330781 H 9.9719865 10.19608 V 4.4256357 4.2181933 l 0.08403,-0.047178 0.08404,-0.047178 0.364145,-0.074497 0.364145,-0.074497 V 4.3039606 4.633078 h 0.280114 0.280113 v 0.3206301 0.3206255 h -0.286253 -0.286253 l 0.03415,0.5076604 0.03415,0.5076558 0.258709,0.034972 0.258709,0.034973 -0.03463,0.2856486 -0.03459,0.2856532 -0.336132,0.022486 -0.336133,0.022486 z M 17.427635,6.9063974 17.208218,6.8532299 16.962778,6.699831 16.717339,6.5464367 16.581142,6.2327965 16.444945,5.9191609 16.517595,5.5497585 16.590255,5.1803562 16.931175,4.9067244 17.2721,4.6330927 h 0.504221 0.504221 l 0.327515,0.3124054 0.32752,0.3124053 V 5.6401933 6.0224741 H 18.137544 17.33951 l 0.14551,0.1672405 0.145506,0.1672402 0.568491,-0.028798 0.568491,-0.028798 V 6.556868 6.8143775 l -0.280113,0.074321 -0.280108,0.074318 -0.280113,-0.00139 -0.280113,-0.00139 z m 0.702684,-1.4984545 -0.03739,-0.187035 -0.266298,-0.036078 -0.266298,-0.036078 -0.09499,0.1429441 -0.09499,0.1429487 -0.0015,0.080155 -0.0014,0.080155 h 0.40037 0.400374 z m 4.504587,1.442955 -0.278249,-0.138272 -0.106953,-0.2900902 -0.106948,-0.2900812 0.263313,-0.2673607 0.263322,-0.2673606 0.538518,-0.068134 0.538523,-0.068148 -0.119585,-0.2131375 -0.119585,-0.2131374 -0.493125,0.05302 -0.493131,0.053016 V 4.9913806 4.8415527 l 0.306957,-0.1113216 0.306956,-0.1113216 0.362093,0.064798 0.362092,0.064794 0.171286,0.2332683 0.171281,0.2332592 v 0.8311658 0.8311564 l -0.364145,-0.00904 -0.364145,-0.00904 -0.280109,0.064959 -0.280113,0.064955 z m 0.94252,-0.4619892 0.176068,-0.16795 V 6.0682785 5.9155984 h -0.32697 -0.326964 l -0.177232,0.064871 -0.177238,0.064876 V 6.229851 6.4143517 l 0.0747,0.071253 0.0747,0.071249 h 0.253434 0.253434 z M 30.812319,6.9121752 30.64425,6.849589 30.448174,6.6866569 30.252092,6.5237247 V 6.2772645 6.0307996 l 0.243899,-0.2167406 0.243894,-0.2167362 0.536885,-0.067936 0.53689,-0.067935 -0.117459,-0.2093315 -0.117445,-0.2093361 -0.492526,0.035617 -0.492532,0.035617 -0.01831,-0.1068706 -0.01831,-0.1068751 0.305203,-0.1437873 0.305208,-0.1437827 0.379405,0.067894 0.379404,0.067889 0.171286,0.2332685 0.171286,0.2332638 V 6.0461789 6.87734 L 31.904725,6.8683 31.54058,6.85926 31.260472,6.917013 30.980354,6.974766 Z m 0.83233,-0.5232666 0.176069,-0.1679501 v -0.15268 -0.1526801 h -0.32697 -0.326969 l -0.177228,0.064871 -0.177232,0.064876 V 6.229851 6.4143517 l 0.07469,0.071253 0.0747,0.071249 h 0.253434 0.253434 z M 33.190189,6.8179851 32.94117,6.6516108 V 5.856104 5.0605926 H 32.661057 32.380944 V 4.9002821 4.7399671 h 0.280113 0.280113 V 4.472777 4.2055913 h 0.04686 0.04686 l 0.177232,-0.064871 0.177232,-0.064876 v 0.3320612 0.3320618 h 0.336133 0.336143 v 0.160315 0.1603105 h -0.33615 -0.336133 v 0.5790749 0.5790749 l 0.06801,0.1690558 0.06801,0.1690558 h 0.268128 0.268129 v 0.1488741 0.1488833 l -0.177232,0.064871 -0.177238,0.064871 h -0.13397 -0.133975 z M 36.07843,6.9091433 35.910361,6.8508146 35.602241,6.5769618 35.294115,6.3031089 V 5.8125108 5.3219034 l 0.168417,-0.2293473 0.168416,-0.2293566 0.392197,-0.1234627 0.392196,-0.1234675 0.32168,0.067392 0.32167,0.067396 0.242599,0.2463175 0.242599,0.2463173 0.06343,0.3728489 0.06344,0.3728489 -0.187357,0.3455899 -0.187358,0.3455852 -0.381115,0.1518968 -0.381114,0.1518923 -0.143656,-0.00843 -0.143655,-0.00843 z m 0.803502,-0.529169 0.204906,-0.1768751 V 5.8272922 5.4514898 L 36.901404,5.2560412 36.715969,5.0605926 h -0.312415 -0.312415 l -0.174421,0.2375306 -0.174421,0.2375351 v 0.273065 0.2730649 l 0.174421,0.2375351 0.174421,0.2375307 h 0.292948 0.292948 z M 2.9372563,5.7820079 2.9691861,4.6865272 3.3333313,4.6530294 3.6974765,4.6195316 V 4.8031799 4.9868328 L 3.9023782,4.8099578 4.1072799,4.6330735 H 4.4065848 4.7058849 V 4.9537036 5.2743291 H 4.4431375 4.1803901 L 3.9949555,5.4697777 3.8095256,5.6652217 v 0.6061219 0.606122 H 3.357426 2.9053264 Z M 14.600192,6.6904444 14.52955,6.5034187 14.211551,5.7042855 13.893556,4.905157 V 4.7626737 4.6201904 l 0.416253,0.033175 0.416257,0.033175 0.240329,0.7363948 0.240333,0.736395 0.242996,-0.7631148 0.242995,-0.7631103 h 0.401084 0.401075 l -0.06739,0.2561044 -0.06739,0.2561041 -0.346731,0.8660873 -0.346717,0.8660919 H 15.168738 14.67083 Z m 4.696363,-1.2825065 0.03116,-1.4695368 h 0.335467 0.335461 l 0.616913,1.0687562 0.616922,1.0687561 0.05602,-1.0687561 0.05602,-1.0687562 0.252096,-0.034143 0.252105,-0.034143 V 5.3738043 6.8774978 H 21.523443 21.198169 L 20.516884,5.7285818 19.8356,4.5796751 19.8342,5.7285818 19.8328,6.8774978 H 19.549434 19.266152 Z M 25.135279,6.6976047 25.061758,6.5034187 24.743764,5.7042855 24.425769,4.905157 V 4.822565 4.739968 h 0.227601 0.22761 l 0.04862,0.133595 0.04863,0.1335952 0.266245,0.6920322 0.266239,0.6920367 0.278626,-0.7989119 0.278615,-0.7989073 0.253787,-0.035479 0.253782,-0.035479 -0.07146,0.2147687 -0.07146,0.2147685 -0.318753,0.8360084 -0.318752,0.8360084 -0.293151,0.033866 -0.293151,0.033866 z M 26.778705,5.8087233 V 4.7399671 h 0.280113 0.280108 v 1.0687562 1.0687561 h -0.280108 -0.280113 z m 7.619056,0 V 4.7399671 h 0.224088 0.224089 v 1.0687562 1.0687561 h -0.224089 -0.224088 z m 3.585432,0 V 4.7399671 h 0.224088 0.224089 v 0.1129388 0.1129344 l 0.249019,-0.1663741 0.249024,-0.1663743 h 0.240068 0.240073 L 39.704772,4.8546017 40,5.0761113 V 5.976793 6.8774794 h -0.224093 -0.224084 l -0.0014,-0.774846 -0.0014,-0.7748506 -0.09448,-0.1421516 -0.09448,-0.1421516 -0.32138,0.035249 -0.321381,0.035249 -0.140998,0.2671857 -0.141003,0.2671902 -0.0014,0.6145356 -0.0014,0.6145355 H 38.208223 37.98413 Z M 26.778705,4.0452763 V 3.7780862 h 0.280113 0.280108 v 0.2671901 0.2671902 h -0.280108 -0.280113 z m 7.619056,0 V 3.7780862 h 0.224088 0.224089 v 0.2671901 0.2671902 h -0.224089 -0.224088 z m -22.854507,-1.1844688 -0.50156,-0.2734566 -0.03246,0.087707 -0.03246,0.087707 -0.106224,0.160315 -0.106223,0.1603105 -0.617478,-0.5815492 -0.6174729,-0.5815539 0.037195,-0.035479 0.037195,-0.035479 0.4858649,0.2632414 0.485865,0.2632461 0.09041,-0.053303 0.09041,-0.053302 V 2.0617758 1.8543334 h 0.08754 0.08754 l 0.665252,0.6412509 0.665256,0.6412555 -0.108537,-0.00139 -0.108537,-0.00139 z m 2.53308,-0.4789223 0.533775,-0.6480657 0.178203,0.2253524 0.178208,0.2253571 0.443907,-0.3045631 0.443912,-0.3045585 0.162248,-0.093683 0.162248,-0.093679 -0.554405,0.6802541 -0.554406,0.6802551 -0.08403,0.1139847 -0.08403,0.1139802 -0.110223,-0.160315 -0.110228,-0.160315 -0.03893,-0.1062762 -0.03893,-0.1062808 -0.464655,0.2933111 -0.464663,0.2933112 h -0.06586 -0.06586 z m -1.348811,-0.1940525 -0.07759,-0.654134 h -0.05782 -0.05783 l -0.21672,0.1106351 -0.216727,0.110635 V 1.6382009 1.5214377 L 12.232543,0.76071885 12.364252,0 l 0.08451,0.20575137 0.0845,0.20575136 0.0079,0.36070768 0.0079,0.36070309 0.348185,-0.066425 0.348186,-0.066419 -0.06003,0.2400969 -0.06003,0.240097 -0.078,0.5343758 -0.078,0.5343757 -0.08211,0.1464736 -0.08211,0.1464781 z"
       id="path9-3-0" />
  </g>
</svg>
